Poster: 
http://imgr.us/images/a7o9psedtzqrnnahhzm.jpg

Info:

Format : MPEG-4
Format profile : Base Media
Codec ID : isom
File size : 746 MiB
Duration : 2h 26mn
Overall bit rate : 712 Kbps
Encoded date : UTC 2012-12-13 15:25:34
Tagged date : UTC 2012-12-13 15:25:34

Video
ID : 1
Format : AVC
Format/Info : Advanced Video Codec
Format profile : High@L2.1
Format settings, CABAC : Yes
Format settings, ReFrames : 4 frames
Codec ID : avc1
Codec ID/Info : Advanced Video Coding
Duration : 2h 26mn
Bit rate : 453 Kbps
Maximum bit rate : 1 392 Kbps
Width : 608 pixels
Height : 256 pixels
Display aspect ratio : 2.40:1
Frame rate mode : Constant
Frame rate : 29.970 fps
Color space : YUV
Chroma subsampling : 4:2:0
Bit depth : 8 bits
Scan type : Progressive
Bits/(Pixel*Frame) : 0.097
Stream size : 475 MiB (64%)
Writing library : x264 core 125 r2200 999b753
Encoded date : UTC 2012-12-13 14:59:22
Tagged date : UTC 2012-12-13 15:26:05

Audio
ID : 2
Format : AC-3
Format/Info : Audio Coding 3
Mode extension : CM (complete main)
Format settings, Endianness : Big
Codec ID : ac-3
Duration : 2h 26mn
Bit rate mode : Constant
Bit rate : 256 Kbps
Channel(s) : 2 channels
Channel positions : Front: L R
Sampling rate : 48.0 KHz
Bit depth : 16 bits
Compression mode : Lossy
Delay relative to video : -3s 327ms
Stream size : 268 MiB (36%)
Encoded date : UTC 2012-12-13 15:25:46
Tagged date : UTC 2012-12-13 15:26:05




Screens:
 
http://www.shotpix.com/images/50588586406493990397.jpg 
http://www.shotpix.com/images/75456984711150677766.jpg 
http://www.shotpix.com/images/34520230604404124102.jpg 
http://www.shotpix.com/images/00832224199514333667.jpg 
http://www.shotpix.com/images/44744658159689848467.jpg 
http://www.shotpix.com/images/36692763502131464039.jpg 
http://www.shotpix.com/images/36077405608433680643.jpg